<svg width="770" height="409" viewBox="0 0 770 409" fill="none" xmlns="http://www.w3.org/2000/svg">
<path d="M135.467 248.029C142.738 247.685 147.525 250.399 153.244 254.658C154.424 256.303 154.424 256.303 154.15 258.594C153.391 261.426 152.356 263.706 150.983 266.295C150.486 267.24 149.989 268.184 149.477 269.158C148.677 270.653 148.677 270.653 147.861 272.178C147.314 273.21 146.766 274.242 146.201 275.305C145.105 277.37 144.007 279.433 142.907 281.495C141.678 283.823 140.479 286.16 139.307 288.518C132.37 302.339 122.931 316.822 111.424 327.303C110.764 327.303 110.104 327.303 109.424 327.303C108.929 328.788 108.929 328.788 108.424 330.303C99.8865 338.195 90.0651 343.763 79.424 348.303C78.7968 348.575 78.1697 348.848 77.5236 349.128C68.9419 352.716 60.833 353.743 51.549 353.803C50.5982 353.809 49.6474 353.816 48.6678 353.822C35.7032 353.587 23.7217 348.653 13.9279 340.131C3.84316 329.379 -0.109927 315.85 0.00231895 301.31C0.520987 286.992 6.81068 275.043 17.0841 265.334C28.0752 255.793 39.947 251.272 54.463 251.947C64.0854 252.811 72.8891 255.975 79.3615 263.428C82.8009 268.222 82.988 272.582 82.424 278.303C80.8289 281.971 78.9596 284.383 75.424 286.303C71.1474 287.08 68.8335 286.132 65.299 283.865C64.657 283.413 64.015 282.96 63.3536 282.494C58.5831 279.549 52.851 279.723 47.424 280.303C40.735 282.332 37.0338 286.255 33.3107 292.029C32.0422 295.282 32.1219 298.198 32.1115 301.678C32.0947 302.964 32.0779 304.251 32.0607 305.576C32.5284 310.374 33.8683 313.616 37.1427 317.166C38.0244 317.883 38.0244 317.883 38.924 318.615C39.5118 319.106 40.0996 319.598 40.7052 320.104C46.186 323.928 54.9875 322.894 61.424 322.303C65.0858 321.447 68.1328 320.101 71.424 318.303C72.218 317.902 73.0121 317.501 73.8302 317.088C94.1412 306 106.204 285.547 116.838 265.842C117.428 264.762 117.428 264.762 118.029 263.66C118.767 262.302 119.493 260.938 120.206 259.567C122.891 254.611 126.059 250.559 131.537 248.514C132.849 248.367 134.159 248.204 135.467 248.029Z" fill="#3366FF"/>
<path d="M446.292 329.661C450.713 331.497 455.19 333.185 459.66 334.897C463.14 336.237 466.61 337.599 470.077 338.969C471.236 339.427 472.394 339.885 473.587 340.356C475.934 341.284 478.28 342.214 480.626 343.145C497.737 349.907 497.737 349.907 515.425 354.876C516.325 355.08 517.225 355.285 518.152 355.495C519.976 355.903 521.801 356.304 523.628 356.698C525.207 357.041 526.785 357.393 528.359 357.76C559.216 364.892 592.752 361.44 619.925 344.938C625.03 341.524 629.828 337.69 634.582 333.806C638.97 330.251 638.97 330.251 641.175 330.251C641.894 344.008 638.579 354.735 629.609 365.262C614.63 381.557 593.268 389.063 571.467 390.419C529.959 392.111 494.923 378.15 457.545 362.201C446.848 357.649 436.048 353.364 425.175 349.251C424.235 348.894 423.294 348.537 422.326 348.169C417.253 346.278 412.307 344.642 406.987 343.563C405.88 343.332 404.773 343.102 403.632 342.864C375.286 337.835 346.692 341.642 322.175 357.251C318.692 359.759 315.406 362.426 312.175 365.251C311.56 365.782 310.945 366.313 310.312 366.86C302.391 374.216 296.89 383.637 292.05 393.188C288.62 399.908 285.375 403.941 278.675 407.626C273.853 408.831 270.445 408.861 265.925 406.688C261.467 402.736 260.06 398.588 259.487 392.813C260.073 374.509 277.931 357.639 290.24 346.03C332.765 306.917 395.976 308.746 446.292 329.661Z" fill="#3366FF"/>
<path d="M675.871 8.86179C689.553 19.5691 700.097 32.1431 702.461 49.8813C703.899 66.1728 701.561 81.4137 690.863 94.3969C683.568 102.05 674.491 107.915 663.684 108.549C657.674 107.882 653.007 105.778 648.809 101.362C646.26 97.3452 645.989 94.8117 645.746 90.1118C648.937 87.9842 652.02 86.6592 655.621 85.4243C662.895 82.556 666.896 77.4521 670.184 70.4868C672.992 62.6418 673.363 52.6915 669.859 44.9868C665.429 37.5245 660.715 31.6925 652.023 29.4673C640.548 27.676 632.047 29.2328 622.684 35.8618C619.762 38.1441 617.196 40.636 614.621 43.2993C610.409 47.5847 606.821 50.1885 600.684 50.4868C596.684 50.1059 594.816 49.6399 591.746 47.1118C588.832 42.4056 589.041 37.4664 589.746 32.1118C590.979 28.7628 592.674 26.0056 594.746 23.1118C595.169 22.5072 595.592 21.9027 596.027 21.2798C615.057 -3.22629 650.35 -5.43005 675.871 8.86179Z" fill="#3366FF"/>
<path d="M543.021 73.3046C548.179 76.1986 551.263 79.6861 553.583 85.1171C554.525 92.164 553.927 98.3626 549.583 104.117C544.166 109.958 538.294 114.073 530.146 114.617C523.347 114.34 518.596 110.582 514.083 105.742C510.016 99.9079 510.7 92.8895 511.583 86.1171C513.473 80.1091 518.135 75.8075 523.208 72.3046C530.1 69.8799 536.403 70.2058 543.021 73.3046Z" fill="#3366FF"/>
<path d="M573.151 222.852C573.151 222.85 573.184 222.828 573.25 222.794C573.183 222.837 573.15 222.854 573.151 222.852Z" fill="#3366FF"/>
<path d="M274.066 17.979C276.473 19.8414 277.477 21.6064 278.828 24.3423C279.191 27.6286 279.191 27.6286 279.171 31.438L279.171 33.5695C279.165 35.9212 279.136 38.272 279.105 40.6236C279.094 42.3114 279.083 43.9993 279.072 45.6872C278.907 66.0364 278.218 86.3774 277.529 106.714L277.496 107.708C277.354 111.92 277.219 116.132 277.083 120.345C276.918 125.48 276.75 130.614 276.582 135.749L276.489 138.584C276.042 152.176 275.475 165.759 274.828 179.342H280.828C281.1 186.413 281.043 194.912 277.828 201.342H274.828L274.898 204.713C275.096 219.668 274.362 234.542 273.539 249.469C271.07 270.13 271.07 270.13 275.828 289.342C278.098 291.62 280.423 293.646 282.965 295.616L284.828 297.342V300.342C276.904 304.445 268.962 308.452 260.703 311.842L257.133 313.311C253.776 314.359 251.317 314.685 247.828 314.342C244.653 312.25 242.943 310.515 240.828 307.342C240.569 304.234 240.569 304.234 240.562 300.303L240.554 298.092C240.55 295.634 240.563 293.176 240.578 290.717L240.583 288.148C240.646 262.201 241.789 236.265 242.828 210.342L239.527 211.061C235.468 211.944 231.409 212.825 227.349 213.705C225.596 214.086 223.842 214.467 222.089 214.849C219.562 215.399 217.035 215.947 214.508 216.495L212.149 217.009L209.906 217.494L207.954 217.918C205.255 218.457 202.544 218.9 199.828 219.342C199.781 228.366 199.746 237.389 199.724 246.412C199.714 250.602 199.7 254.792 199.677 258.982C199.655 263.028 199.643 267.074 199.638 271.12C199.634 272.662 199.627 274.203 199.616 275.744C199.602 277.908 199.6 280.072 199.601 282.235L199.587 285.963C199.833 289.417 200.624 292.112 201.828 295.342C202.269 297.952 202.269 297.952 201.828 300.342C199.668 302.483 199.668 302.483 196.765 304.592C192.986 307.494 189.97 310.15 187.203 314.03C183.272 319.451 178.195 323.22 171.828 325.342C167.528 325.761 163.841 325.715 159.765 324.217C157.828 322.342 157.828 322.342 157.203 319.717C157.937 315.75 159.493 313.069 161.519 309.62C167.97 298.394 166.988 285.195 167.363 272.608C167.406 271.235 167.45 269.862 167.493 268.489C167.606 264.919 167.715 261.348 167.824 257.777C167.926 254.43 168.031 251.083 168.136 247.736L168.166 246.795C168.39 239.645 168.61 232.493 168.828 225.342L166.768 225.706C163.643 226.253 160.517 226.79 157.39 227.327L154.15 227.898C145.938 229.299 138.165 229.823 129.828 229.342C131.266 223.609 134.246 219.771 137.828 215.217C138.914 213.821 139.998 212.423 141.078 211.022L142.531 209.17C144.092 207.069 144.092 207.069 145.828 203.342L168.828 199.342L171.828 75.3423C158.384 76.5645 148.844 79.2707 138.828 88.3423L136.933 89.9243C127.43 98.4336 123.605 111.26 122.547 123.631C122.182 136.371 125.098 148.099 133.926 157.6C135.291 158.943 136.678 160.264 138.093 161.553C141.062 164.616 142.127 167.353 142.203 171.592C142.056 176.544 140.905 180.419 137.828 184.342C131.851 189.278 126.072 190.783 118.418 190.682C114.045 190.108 111.189 188.085 107.828 185.342L106.023 183.944C96.52 175.623 90.8253 160.259 89.4463 147.931C89.2942 144.454 89.272 141.01 89.3279 137.53L89.3689 133.812C89.8351 113.317 97.0012 96.2668 109.828 80.3423L112.172 77.3736C125.975 60.9556 148.099 52.177 168.828 49.3423C172.916 49.0621 176.981 49.0169 181.078 49.0298L184.218 48.981C190.186 48.9772 194.633 49.2982 199.828 52.3423C202.639 55.3673 203.201 57.3599 203.184 61.4507L203.193 64.5652L203.156 67.9517L203.152 71.5092C203.142 75.3705 203.111 79.2312 203.078 83.0923C203.068 85.0964 203.059 87.1004 203.051 89.1045C202.906 123.86 202.152 158.612 200.828 193.342L203.333 192.544C209.997 190.452 216.61 188.553 223.453 187.155L225.742 186.657C231.738 185.406 237.723 184.798 243.828 184.342L243.812 181.697C243.735 166.697 243.681 151.709 244.265 136.717C244.789 123.267 245.042 109.817 245.266 96.3589C245.361 90.7033 245.461 85.0477 245.562 79.3921L245.605 76.9683L245.649 74.4797C245.744 69.1531 245.837 63.8264 245.921 58.4995C245.987 54.331 246.066 50.1629 246.158 45.9947C246.187 44.5386 246.212 43.0824 246.231 41.6262C246.441 26.2069 246.441 26.2069 251.547 20.3814L253.328 18.9673L255.109 17.5064C261.238 13.3555 267.947 14.9628 274.066 17.979Z" fill="#3366FF"/>
<path fill-rule="evenodd" clip-rule="evenodd" d="M569.581 131.965C544.1 158.416 537.147 191.923 537.674 227.607C539.028 236.697 545.943 257.038 562.768 265.688C571.122 267.898 581.062 267.924 588.764 263.715L590.706 262.465C597.985 257.994 604.479 251.563 607.932 243.656L608.706 241.465H610.706V244.465C616.855 259.657 626.859 272.153 639.288 282.645C660.493 298.986 683.651 302.693 709.944 300.258C725.76 298.126 745.231 289.185 755.206 276.461L756.706 274.465C762.879 266.857 767.963 259.464 768.892 249.455C769.362 240.988 769.68 233.776 763.905 227.117C762.309 225.33 760.779 223.565 759.364 221.629C750.442 208.585 740.908 199.253 725.143 195.215L721.706 194.465C724.189 193.593 726.264 192.847 728.268 191.113C733.182 185.478 733.095 178.506 732.706 171.465C732.014 171.465 731.561 171.465 731.126 171.551C730.302 171.714 729.54 172.184 727.335 173.543C722.945 176.355 718.432 178.895 713.875 181.425L712.772 182.035C698.274 190.065 684.147 197.889 671.241 208.375L668.706 210.465C669.443 206.009 669.834 201.727 669.842 197.211L669.831 195.09L669.842 192.899C669.841 192.4 669.869 191.903 669.897 191.412L669.897 191.41C669.999 189.589 670.096 187.855 668.706 186.465C667.03 186.751 665.362 187.083 663.706 187.465C663.482 188.657 663.244 189.88 663.002 191.128C660.697 203.017 657.948 217.193 661.706 228.465H663.706L665.483 226.301C674.904 214.28 688.49 204.071 703.706 201.465C718.726 200.279 732.34 201.637 744.581 211.277C749.197 215.545 751.429 220.053 752.143 226.277C751.405 238.445 746.263 248.346 737.581 256.715C725.287 267.271 709.654 272.255 693.526 271.66L690.706 271.465C689.329 271.382 687.954 271.28 686.581 271.152C671.375 268.455 658.943 262.267 649.706 249.465C637.702 230.945 638.917 206.553 643.217 185.751L643.831 182.84C645.162 176.424 646.549 170.029 648.106 163.663C648.431 162.338 648.754 161.013 649.076 159.688C649.554 157.717 650.033 155.747 650.518 153.777C651.734 149.025 652.889 144.304 653.706 139.465L653.756 138.869C654.306 132.354 654.759 126.984 650.706 121.465C648.738 120.168 647.412 119.294 645.964 118.74C642.975 117.594 639.464 117.808 628.706 118.465C623.076 120.341 617.615 120.927 611.831 119.527C608.408 118.509 605.279 118.264 601.706 118.215C589.236 118.495 578.48 123.13 569.581 131.965ZM571.3 181C578.908 161.074 591.791 148.382 594.3 146.5C598.3 143.5 611.8 142.5 614.8 147C617.8 151.5 610.816 175.589 608.3 184C608.097 184.679 607.775 186.183 607.33 188.264C605.409 197.236 601.192 216.936 594.3 227.5C581.3 246.5 566.929 246.481 565.8 222C565.208 209.178 566.778 192.841 571.3 181Z" fill="#3366FF"/>
<path d="M523.634 273.886C530.299 270.161 546.284 259.149 548.583 251.504L540.644 233.668L533.068 239.808C532.809 240.232 532.553 240.656 532.298 241.081C529.565 245.617 526.888 250.06 521.416 251.504C517.439 252.157 515.82 252.26 512.4 249.98C511.096 247.418 510.435 245.324 510.141 242.463L510.126 236.791L510.15 233.668C510.036 219.12 514.027 205.294 517.456 191.182C517.8 189.77 518.141 188.357 518.479 186.944C521.412 174.661 525.577 162.441 528.859 150.248L529.429 148.135C529.792 146.79 530.154 145.446 530.517 144.101C531.975 138.739 533.191 133.421 534.4 127.98H505.4C503.577 133.449 501.805 138.849 500.206 144.373L499.462 146.98C497.61 153.47 495.851 159.965 494.337 166.543C494.26 166.884 494.184 167.225 494.107 167.566L494.097 167.609C493.375 170.818 492.653 174.024 491.81 177.205C487.854 197.211 482.853 210.465 478.259 235.683L478.4 237.98L482.853 257.371L483.4 258.98C487.279 265.652 492.693 272.039 499.814 275.332C507.117 277.163 516.835 277.215 523.634 273.886Z" fill="#3366FF"/>
<path fill-rule="evenodd" clip-rule="evenodd" d="M414.644 254.281C414.722 254.131 414.804 253.971 414.892 253.8L414.893 253.797C414.805 253.969 414.722 254.13 414.644 254.281Z" fill="#3366FF"/>
<path fill-rule="evenodd" clip-rule="evenodd" d="M421.967 270.199L422.819 259.316L418.819 240.316L417.706 248.985C416.704 250.55 415.779 252.164 414.893 253.797L414.892 253.8L414.644 254.281C414.099 255.34 413.787 255.934 413.436 256.504C413.039 257.149 412.593 257.763 411.706 258.984C407.156 262.378 404.184 262.263 398.706 261.984C396.07 257.447 394.198 253.522 394.047 248.155L394.081 245.985L394.081 245.984L394.081 245.98C396.038 228.102 397.019 219.14 398.729 210.319C400.448 201.452 402.904 192.728 407.827 175.236L407.828 175.234L407.958 174.751L407.958 174.75C408.877 171.35 409.796 167.951 410.686 164.543L411.206 162.547C411.675 160.8 411.901 159.959 412.093 159.109C412.271 158.319 412.42 157.522 412.706 155.985C413.022 150.883 413.11 147.07 409.706 142.985C405.505 139.529 402.605 138.524 397.331 138.584L395.081 138.672C394.718 138.677 394.357 138.68 393.995 138.684C390.855 138.715 387.738 138.747 384.657 139.456C380.884 140.477 377.36 141.266 373.452 140.602C367.804 139.314 362.525 138.55 356.713 138.676C344.247 139.955 333.244 147.666 324.823 156.551C303.004 181.63 294.828 212.394 296.514 245.23C297.42 258.242 301.715 271.65 311.792 280.551C320.684 287.211 328.914 288.017 339.706 286.984C350.246 284.876 356.4 277.347 362.764 269.434L364.706 266.985L364.707 266.986C365.771 267.982 366.274 268.453 366.705 268.983C367.09 269.458 367.418 269.982 368.038 270.973C371.681 276.693 375.226 281.663 381.081 285.297C387.663 288.424 397.852 288.238 404.706 285.984C411.675 282.705 418.73 277.345 421.967 270.199ZM372.893 168.485L375.706 169.985C376.098 177.616 374.675 184.027 372.643 191.36C371.995 193.759 371.348 196.159 370.702 198.559L369.694 202.271C368.728 205.902 367.818 209.542 366.928 213.192C360.856 237.969 358.729 246.644 353.626 252.884C350.877 256.245 347.265 258.9 341.706 262.985C340.167 263.497 339.418 263.747 338.648 263.869C337.917 263.985 337.167 263.985 335.706 263.985C330.97 261.341 329.413 258.02 327.706 252.985C322.479 229.702 330.861 202 342.706 181.985C350.299 170.804 358.714 162.502 372.893 168.485Z" fill="#3366FF"/>
<path d="M497.186 65.5621C495.465 61.4344 493.113 58.6079 488.983 56.6012C483.749 55.0741 478.222 55.1191 473.104 56.9801C468.442 61.1244 465.291 63.9258 462.712 67.1811C457.333 73.9721 454.447 82.7385 445.542 109.793C444.99 111.525 444.429 113.255 443.854 114.98C440.293 123.242 437.904 131.62 435.661 140.325C435.428 141.233 435.197 142.141 434.965 143.05L434.963 143.06C433.608 148.373 432.253 153.688 430.718 158.953C422.848 185.547 418.626 212.593 418.819 240.316L423.854 262.98C426.551 268.972 430.138 273.453 434.854 277.98C436.909 279.712 438.281 280.868 439.851 281.595C443.005 283.056 446.959 282.787 458.854 281.98C468.344 278.817 477.27 265.311 482.853 257.371L478.4 237.98C476.503 241.7 469.148 252.024 466.104 254.918C461.847 257.62 459.809 257.558 454.854 256.98C452.357 254.483 451.062 252.203 449.687 248.957C441.555 219.867 457.657 181.811 469.854 155.98C470.735 154.137 471.608 152.293 472.458 150.436L473.292 148.605C475.119 144.694 475.904 142.582 475.55 138.25L474.854 134.98C474.535 133.311 474.207 131.643 473.854 129.98L467.854 127.98C467.184 128.555 466.649 129.013 466.162 129.516C464.253 131.489 463.066 134.16 457.229 147.293L455.995 150.076L454.815 152.718C454.668 153.051 454.527 153.381 454.39 153.706C453.723 155.275 453.104 156.73 451.854 157.98C457.907 134.406 465.94 110.286 477.854 88.9801C477.963 91.5567 477.946 93.6755 477.198 96.1558C475.145 101.355 474.55 105.402 474.854 110.98H476.854L478.854 112.98L480.854 111.98L482.854 115.98L487.854 114.98C488.493 113.201 489.175 111.363 489.875 109.48C494.995 95.7028 501.028 79.4666 497.186 65.5621Z" fill="#3366FF"/>
</svg>
