<svg xmlns="http://www.w3.org/2000/svg" viewBox="0 0 760 420" role="img" aria-labelledby="title desc">
  <title id="title">Factory edge data animation</title>
  <desc id="desc">Animated PLC and CNC data moving through Halia rules, FluxMQ messaging, and business systems.</desc>
  <defs>
    <linearGradient id="panel" x1="0" x2="1" y1="0" y2="1">
      <stop offset="0" stop-color="#102623"/>
      <stop offset="1" stop-color="#1f1b12"/>
    </linearGradient>
    <linearGradient id="accent" x1="0" x2="1">
      <stop offset="0" stop-color="#1eccbb"/>
      <stop offset="1" stop-color="#f4b63a"/>
    </linearGradient>
    <filter id="glow" x="-50%" y="-50%" width="200%" height="200%">
      <feGaussianBlur stdDeviation="5" result="blur"/>
      <feMerge><feMergeNode in="blur"/><feMergeNode in="SourceGraphic"/></feMerge>
    </filter>
    <style>
      .bg{fill:#07100f}
      .card{fill:url(#panel);stroke:#244641;stroke-width:1.4}
      .line{fill:none;stroke:#1eccbb;stroke-width:3;stroke-dasharray:9 13;animation:flow 3.5s linear infinite}
      .line2{animation-delay:.75s}
      .label{font:600 18px Arial,sans-serif;fill:#f8fafc}
      .small{font:500 13px Arial,sans-serif;fill:#bdb7a8}
      .machine{fill:#152522;stroke:#37625d;stroke-width:2}
      .lamp{fill:#1eccbb;filter:url(#glow);animation:pulse 1.8s ease-in-out infinite}
      .arm{stroke:#d9fff8;stroke-width:10;stroke-linecap:round;animation:arm 4s ease-in-out infinite;transform-origin:153px 158px}
      .gear{fill:none;stroke:url(#accent);stroke-width:4;stroke-dasharray:16 8;animation:spin 9s linear infinite;transform-origin:center}
      .logoBox{fill:#0b1715;stroke:url(#accent);stroke-width:2}
      .logoH{fill:none;stroke:#f8fafc;stroke-width:4;stroke-linecap:round;stroke-linejoin:round}
      .logoArc{fill:none;stroke:url(#accent);stroke-width:2.5;stroke-linecap:round}
      .logoWave{fill:none;stroke:#f8fafc;stroke-width:3;stroke-linecap:round}
      .logoShield{fill:none;stroke:#f8fafc;stroke-width:2.8;stroke-linejoin:round}
      .logoCheck{fill:none;stroke:#f8fafc;stroke-width:2.8;stroke-linecap:round;stroke-linejoin:round}
      .logoNode{fill:none;stroke:#f8fafc;stroke-width:2.6;stroke-linecap:round}
      .logoName{font:700 18px Arial,sans-serif;fill:#f8fafc}
      @keyframes flow{to{stroke-dashoffset:-88}}
      @keyframes pulse{0%,100%{opacity:.35}50%{opacity:1}}
      @keyframes arm{0%,100%{transform:rotate(-14deg)}50%{transform:rotate(18deg)}}
      @keyframes spin{to{transform:rotate(360deg)}}
    </style>
  </defs>
  <rect class="bg" width="760" height="420"/>
  <path d="M0 340 L760 260 L760 420 L0 420Z" fill="#10201e" opacity=".75"/>

  <g>
    <rect class="machine" x="64" y="203" width="150" height="112" rx="10"/>
    <rect x="84" y="225" width="58" height="44" rx="6" fill="#0a1211" stroke="#1eccbb" opacity=".7"/>
    <circle class="lamp" cx="187" cy="226" r="9"/>
    <rect x="94" y="289" width="91" height="13" rx="6" fill="#f4b63a" opacity=".8"/>
    <path class="arm" d="M153 158 L204 204"/>
    <circle cx="153" cy="158" r="22" fill="#152522" stroke="#1eccbb" stroke-width="3"/>
    <circle cx="213" cy="213" r="12" fill="#f4b63a"/>
  </g>

  <g>
    <rect x="72" y="72" width="76" height="34" rx="17" fill="#0f1c1a" stroke="#37625d"/>
    <text class="small" x="97" y="94">PLC</text>
    <rect x="160" y="72" width="82" height="34" rx="17" fill="#0f1c1a" stroke="#37625d"/>
    <text class="small" x="188" y="94">CNC</text>
    <rect x="254" y="72" width="92" height="34" rx="17" fill="#0f1c1a" stroke="#37625d"/>
    <text class="small" x="279" y="94">SCADA</text>
  </g>

  <g>
    <rect class="card" x="315" y="126" width="140" height="104" rx="8"/>
    <g transform="translate(333 146)">
      <rect class="logoBox" width="40" height="40" rx="10"/>
      <path class="logoH" d="M13 10v20M27 10v20M14 20h12"/>
      <path class="logoArc" d="M15 15c5-6 10-6 14 0"/>
      <circle cx="13" cy="10" r="2.8" fill="#1eccbb"/>
      <circle cx="27" cy="30" r="2.8" fill="#f4b63a"/>
    </g>
    <text class="logoName" x="384" y="169">Halia</text>
    <text class="small" x="384" y="191">edge rules</text>
    <circle class="gear" cx="385" cy="274" r="38"/>
    <text class="small" x="345" y="333">normalize / filter</text>
  </g>

  <g>
    <rect class="card" x="533" y="82" width="135" height="86" rx="8"/>
    <g transform="translate(551 101)">
      <rect class="logoBox" width="40" height="40" rx="10"/>
      <path class="logoWave" d="M8 15c9-7 15 7 24 0"/>
      <path class="logoWave" d="M8 26c9-7 15 7 24 0"/>
    </g>
    <text class="logoName" x="601" y="123">FluxMQ</text>
    <text class="small" x="601" y="145">message bus</text>
    <rect class="card" x="533" y="212" width="135" height="86" rx="8"/>
    <g transform="translate(553 232)">
      <rect class="logoBox" width="38" height="38" rx="10"/>
      <path class="logoShield" d="M19 7l11 5v8c0 8-5 13-11 16C13 33 8 28 8 20v-8z"/>
      <path class="logoCheck" d="M14 20l4 4 8-11"/>
    </g>
    <text class="logoName" x="602" y="253">FCP</text>
    <text class="small" x="602" y="275">operations</text>
  </g>

  <path class="line" d="M214 244 C266 219 285 178 315 171"/>
  <path class="line line2" d="M455 169 C490 141 506 126 533 126"/>
  <path class="line" d="M455 203 C494 230 508 251 533 255"/>
  <circle class="lamp" cx="276" cy="210" r="7"/>
  <circle class="lamp" cx="493" cy="140" r="7" style="animation-delay:.7s"/>
  <circle class="lamp" cx="492" cy="238" r="7" style="animation-delay:1.2s"/>

  <g>
    <rect x="590" y="333" width="35" height="34" rx="5" fill="#1eccbb" opacity=".35"/>
    <rect x="631" y="316" width="35" height="51" rx="5" fill="#f4b63a" opacity=".35"/>
    <rect x="672" y="292" width="35" height="75" rx="5" fill="#1eccbb" opacity=".25"/>
  </g>
</svg>
