<svg xmlns="http://www.w3.org/2000/svg" viewBox="0 0 760 420" role="img" aria-labelledby="title desc">
  <title id="title">Vehicle data access animation</title>
  <desc id="desc">Animated vehicle telemetry flowing from car terminals through FluxMQ to data platforms.</desc>
  <defs>
    <linearGradient id="panel" x1="0" x2="1" y1="0" y2="1">
      <stop offset="0" stop-color="#102623"/>
      <stop offset="1" stop-color="#172016"/>
    </linearGradient>
    <linearGradient id="accent" x1="0" x2="1">
      <stop offset="0" stop-color="#1eccbb"/>
      <stop offset="1" stop-color="#f4b63a"/>
    </linearGradient>
    <filter id="glow" x="-40%" y="-40%" width="180%" height="180%">
      <feGaussianBlur stdDeviation="5" result="blur"/>
      <feMerge>
        <feMergeNode in="blur"/>
        <feMergeNode in="SourceGraphic"/>
      </feMerge>
    </filter>
    <style>
      .bg{fill:#07100f}
      .card{fill:url(#panel);stroke:#244641;stroke-width:1.4}
      .line{fill:none;stroke:#1eccbb;stroke-width:3;stroke-linecap:round;stroke-dasharray:10 14;animation:dash 3.8s linear infinite}
      .pulse{fill:#1eccbb;filter:url(#glow);animation:pulse 2.4s ease-in-out infinite}
      .pulse2{animation-delay:.8s}
      .pulse3{animation-delay:1.4s}
      .label{font:600 18px Arial,sans-serif;fill:#f8fafc}
      .small{font:500 13px Arial,sans-serif;fill:#bdb7a8}
      .chip{fill:#0f1c1a;stroke:#37625d;stroke-width:1}
      .wheel{fill:#07100f;stroke:#1eccbb;stroke-width:3}
      .fluxHex{fill:url(#accent)}
      .fluxWave{fill:none;stroke:#f8fafc;stroke-width:7;stroke-linecap:round}
      .logoName{font:700 19px Arial,sans-serif;fill:#f8fafc}
      .sysLine{fill:none;stroke:#f8fafc;stroke-width:2.4;stroke-linecap:round;stroke-linejoin:round}
      .sysAccent{fill:#1eccbb}
      .sysGold{fill:#f4b63a}
      @keyframes dash{to{stroke-dashoffset:-96}}
      @keyframes pulse{0%,100%{opacity:.35;transform:scale(.92);transform-origin:center}50%{opacity:1;transform:scale(1.08);transform-origin:center}}
      @keyframes float{0%,100%{transform:translateY(0)}50%{transform:translateY(-9px)}}
      .float{animation:float 4s ease-in-out infinite}
    </style>
  </defs>
  <rect class="bg" width="760" height="420"/>
  <path d="M0 310 C130 250 235 380 380 292 C520 210 610 260 760 185 L760 420 L0 420Z" fill="#10201e" opacity=".65"/>

  <g class="float">
    <path d="M88 247h138l22 42h44c16 0 29 13 29 29v7H51v-18c0-20 17-37 37-37h21z" fill="#16312e" stroke="#2b5b54" stroke-width="2"/>
    <path d="M124 224h91l35 47H93z" fill="#0d1c1a" stroke="#1eccbb" stroke-width="2"/>
    <circle class="wheel" cx="113" cy="326" r="22"/>
    <circle class="wheel" cx="260" cy="326" r="22"/>
    <rect x="134" y="239" width="42" height="19" rx="4" fill="#1eccbb" opacity=".35"/>
    <rect x="186" y="239" width="35" height="19" rx="4" fill="#f4b63a" opacity=".35"/>
  </g>

  <g>
    <rect class="card" x="365" y="72" width="154" height="114" rx="8"/>
    <g transform="translate(386 92)">
      <g transform="translate(6 5) scale(.38)">
        <path class="fluxHex" d="M50 0 93 25v50l-43 25L7 75V25Z"/>
        <path class="fluxWave" d="M22 31c13 12 27 12 40 0 6-5 12-8 18-8"/>
        <path class="fluxWave" d="M18 51c12 12 26 12 39 0 7-6 13-9 20-9"/>
        <path class="fluxWave" d="M24 72c13 9 27 8 39-3"/>
      </g>
    </g>
    <text class="logoName" x="448" y="116">FluxMQ</text>
    <text class="small" x="448" y="136">vehicle gateway</text>
  </g>

  <g>
    <rect class="card" x="587" y="54" width="119" height="82" rx="8"/>
    <g transform="translate(607 72)">
      <rect x="7" y="6" width="14" height="7" rx="2" fill="none" stroke="#1eccbb" stroke-width="2"/>
      <rect x="5" y="18" width="8" height="6" rx="2" class="sysAccent"/>
      <rect x="16" y="18" width="8" height="6" rx="2" class="sysGold"/>
      <path class="sysLine" d="M14 13v5M9 18c0-3 2-5 5-5M19 18c0-3-2-5-5-5"/>
    </g>
    <text class="label" x="645" y="94">TSP</text>
    <text class="small" x="645" y="115">services</text>
    <rect class="card" x="587" y="166" width="119" height="82" rx="8"/>
    <g transform="translate(607 184)">
      <path d="M7 20c5-7 9-11 16-11" fill="none" stroke="#1eccbb" stroke-width="2.5" stroke-linecap="round"/>
      <path class="sysLine" d="M8 9h5c4 0 6 4 9 10"/>
      <circle class="sysAccent" cx="8" cy="9" r="2.8"/>
      <circle class="sysGold" cx="7" cy="20" r="2.8"/>
      <circle cx="23" cy="9" r="2.8" fill="#f8fafc"/>
    </g>
    <text class="label" x="645" y="206">Kafka</text>
    <text class="small" x="645" y="227">big data</text>
    <rect class="card" x="587" y="278" width="119" height="82" rx="8"/>
    <g transform="translate(607 296)">
      <path class="sysLine" d="M11 9 6 14l5 5M17 9l5 5-5 5M15 8l-3 12"/>
      <circle class="sysAccent" cx="14" cy="14" r="2.3"/>
    </g>
    <text class="label" x="645" y="318">API</text>
    <text class="small" x="645" y="339">control</text>
  </g>

  <path class="line" d="M318 285 C350 252 365 214 405 183"/>
  <path class="line" d="M519 119 C552 103 561 96 587 95"/>
  <path class="line" d="M519 133 C552 154 561 198 587 207"/>
  <path class="line" d="M519 148 C552 205 561 308 587 319"/>
  <circle class="pulse" cx="352" cy="248" r="8"/>
  <circle class="pulse pulse2" cx="552" cy="107" r="7"/>
  <circle class="pulse pulse3" cx="552" cy="209" r="7"/>

  <g>
    <rect class="chip" x="78" y="54" width="94" height="34" rx="17"/>
    <text class="small" x="96" y="76">GB/T32960</text>
    <rect class="chip" x="78" y="98" width="79" height="34" rx="17"/>
    <text class="small" x="101" y="120">JT/T808</text>
    <rect class="chip" x="78" y="142" width="71" height="34" rx="17"/>
    <text class="small" x="101" y="164">MQTT</text>
  </g>
</svg>
