<svg xmlns="http://www.w3.org/2000/svg" viewBox="0 0 760 420" role="img" aria-labelledby="title desc">
  <title id="title">Vehicle data access animation</title>
  <desc id="desc">Animated vehicle telemetry flowing from car terminals through FluxMQ to data platforms.</desc>
  <defs>
    <linearGradient id="panel" x1="0" x2="1" y1="0" y2="1">
      <stop offset="0" stop-color="#102623"/>
      <stop offset="1" stop-color="#172016"/>
    </linearGradient>
    <linearGradient id="accent" x1="0" x2="1">
      <stop offset="0" stop-color="#1eccbb"/>
      <stop offset="1" stop-color="#f4b63a"/>
    </linearGradient>
    <filter id="glow" x="-40%" y="-40%" width="180%" height="180%">
      <feGaussianBlur stdDeviation="5" result="blur"/>
      <feMerge>
        <feMergeNode in="blur"/>
        <feMergeNode in="SourceGraphic"/>
      </feMerge>
    </filter>
    <style>
      .bg{fill:#07100f}
      .card{fill:url(#panel);stroke:#244641;stroke-width:1.4}
      .line{fill:none;stroke:#1eccbb;stroke-width:3;stroke-linecap:round;stroke-dasharray:10 14;animation:dash 3.8s linear infinite}
      .pulse{fill:#1eccbb;filter:url(#glow);animation:pulse 2.4s ease-in-out infinite}
      .pulse2{animation-delay:.8s}
      .pulse3{animation-delay:1.4s}
      .label{font:600 18px Arial,sans-serif;fill:#f8fafc}
      .small{font:500 13px Arial,sans-serif;fill:#bdb7a8}
      .chip{fill:#0f1c1a;stroke:#37625d;stroke-width:1}
      .wheel{fill:#07100f;stroke:#1eccbb;stroke-width:3}
      .logoBox{fill:#0b1715;stroke:url(#accent);stroke-width:2}
      .logoWave{fill:none;stroke:#f8fafc;stroke-width:3.4;stroke-linecap:round}
      .logoName{font:700 19px Arial,sans-serif;fill:#f8fafc}
      @keyframes dash{to{stroke-dashoffset:-96}}
      @keyframes pulse{0%,100%{opacity:.35;transform:scale(.92);transform-origin:center}50%{opacity:1;transform:scale(1.08);transform-origin:center}}
      @keyframes float{0%,100%{transform:translateY(0)}50%{transform:translateY(-9px)}}
      .float{animation:float 4s ease-in-out infinite}
    </style>
  </defs>
  <rect class="bg" width="760" height="420"/>
  <path d="M0 310 C130 250 235 380 380 292 C520 210 610 260 760 185 L760 420 L0 420Z" fill="#10201e" opacity=".65"/>

  <g class="float">
    <path d="M88 247h138l22 42h44c16 0 29 13 29 29v7H51v-18c0-20 17-37 37-37h21z" fill="#16312e" stroke="#2b5b54" stroke-width="2"/>
    <path d="M124 224h91l35 47H93z" fill="#0d1c1a" stroke="#1eccbb" stroke-width="2"/>
    <circle class="wheel" cx="113" cy="326" r="22"/>
    <circle class="wheel" cx="260" cy="326" r="22"/>
    <rect x="134" y="239" width="42" height="19" rx="4" fill="#1eccbb" opacity=".35"/>
    <rect x="186" y="239" width="35" height="19" rx="4" fill="#f4b63a" opacity=".35"/>
  </g>

  <g>
    <rect class="card" x="365" y="72" width="154" height="114" rx="8"/>
    <g transform="translate(386 92)">
      <rect class="logoBox" width="50" height="50" rx="12"/>
      <path class="logoWave" d="M10 18c10-9 20 9 30 0"/>
      <path class="logoWave" d="M10 31c10-9 20 9 30 0"/>
    </g>
    <text class="logoName" x="448" y="116">FluxMQ</text>
    <text class="small" x="448" y="136">vehicle gateway</text>
  </g>

  <g>
    <rect class="card" x="587" y="54" width="119" height="82" rx="8"/>
    <text class="label" x="613" y="94">TSP</text>
    <text class="small" x="609" y="115">services</text>
    <rect class="card" x="587" y="166" width="119" height="82" rx="8"/>
    <text class="label" x="610" y="206">Kafka</text>
    <text class="small" x="608" y="227">big data</text>
    <rect class="card" x="587" y="278" width="119" height="82" rx="8"/>
    <text class="label" x="612" y="318">API</text>
    <text class="small" x="609" y="339">control</text>
  </g>

  <path class="line" d="M318 285 C350 252 365 214 405 183"/>
  <path class="line" d="M519 119 C552 103 561 96 587 95"/>
  <path class="line" d="M519 133 C552 154 561 198 587 207"/>
  <path class="line" d="M519 148 C552 205 561 308 587 319"/>
  <circle class="pulse" cx="352" cy="248" r="8"/>
  <circle class="pulse pulse2" cx="552" cy="107" r="7"/>
  <circle class="pulse pulse3" cx="552" cy="209" r="7"/>

  <g>
    <rect class="chip" x="78" y="54" width="94" height="34" rx="17"/>
    <text class="small" x="96" y="76">GB/T32960</text>
    <rect class="chip" x="78" y="98" width="79" height="34" rx="17"/>
    <text class="small" x="101" y="120">JT/T808</text>
    <rect class="chip" x="78" y="142" width="71" height="34" rx="17"/>
    <text class="small" x="101" y="164">MQTT</text>
  </g>
</svg>
