<svg width="1280" height="720" viewBox="0 0 1280 720" fill="none" xmlns="http://www.w3.org/2000/svg">
  <rect width="1280" height="720" fill="#07100F"/>
  <rect x="64" y="52" width="1152" height="616" rx="10" fill="#101916" stroke="#24423B" stroke-width="2"/>
  <rect x="64" y="52" width="1152" height="74" rx="10" fill="#12231F"/>
  <circle cx="109" cy="89" r="10" fill="#25C6B5"/>
  <circle cx="142" cy="89" r="10" fill="#F4B942"/>
  <circle cx="175" cy="89" r="10" fill="#56C271"/>
  <rect x="222" y="78" width="270" height="22" rx="4" fill="#24423B"/>
  <rect x="1036" y="78" width="118" height="22" rx="4" fill="#25C6B5" fill-opacity="0.36"/>
  <rect x="112" y="172" width="238" height="140" rx="8" fill="#13201D" stroke="#24423B"/>
  <rect x="392" y="172" width="238" height="140" rx="8" fill="#13201D" stroke="#24423B"/>
  <rect x="672" y="172" width="238" height="140" rx="8" fill="#13201D" stroke="#24423B"/>
  <rect x="952" y="172" width="152" height="140" rx="8" fill="#13201D" stroke="#24423B"/>
  <rect x="112" y="364" width="456" height="220" rx="8" fill="#0D1513" stroke="#24423B"/>
  <rect x="616" y="364" width="488" height="220" rx="8" fill="#0D1513" stroke="#24423B"/>
  <path d="M144 522C182 483 218 492 254 452C300 401 339 432 378 388C418 343 480 396 536 368" stroke="#25C6B5" stroke-width="8" stroke-linecap="round"/>
  <rect x="664" y="404" width="92" height="132" rx="4" fill="#25C6B5" fill-opacity="0.62"/>
  <rect x="796" y="452" width="92" height="84" rx="4" fill="#F4B942" fill-opacity="0.75"/>
  <rect x="928" y="424" width="92" height="112" rx="4" fill="#56C271" fill-opacity="0.7"/>
  <circle cx="640" cy="360" r="74" fill="#25C6B5" fill-opacity="0.94"/>
  <path d="M616 320L688 360L616 400V320Z" fill="#07100F"/>
  <text x="112" y="642" fill="#DDF7F0" font-family="Arial, sans-serif" font-size="42" font-weight="700">FluxMQ Console Overview</text>
  <text x="112" y="684" fill="#A9B8B2" font-family="Arial, sans-serif" font-size="24">Dashboard, metrics, connections and operations</text>
</svg>
