<svg width="1280" height="720" viewBox="0 0 1280 720" fill="none" xmlns="http://www.w3.org/2000/svg">
  <rect width="1280" height="720" fill="#07100F"/>
  <rect x="74" y="58" width="1132" height="604" rx="10" fill="#101916" stroke="#24423B" stroke-width="2"/>
  <rect x="116" y="112" width="252" height="496" rx="8" fill="#0D1513" stroke="#24423B"/>
  <rect x="418" y="112" width="666" height="496" rx="8" fill="#0D1513" stroke="#24423B"/>
  <rect x="152" y="156" width="178" height="26" rx="4" fill="#25C6B5" fill-opacity="0.36"/>
  <rect x="152" y="220" width="154" height="18" rx="4" fill="#A9B8B2" fill-opacity="0.35"/>
  <rect x="152" y="268" width="126" height="18" rx="4" fill="#A9B8B2" fill-opacity="0.24"/>
  <rect x="152" y="316" width="164" height="18" rx="4" fill="#A9B8B2" fill-opacity="0.24"/>
  <rect x="152" y="364" width="112" height="18" rx="4" fill="#A9B8B2" fill-opacity="0.24"/>
  <rect x="494" y="178" width="172" height="92" rx="8" fill="#13201D" stroke="#25C6B5" stroke-width="2"/>
  <rect x="790" y="178" width="172" height="92" rx="8" fill="#13201D" stroke="#F4B942" stroke-width="2"/>
  <rect x="494" y="374" width="172" height="92" rx="8" fill="#13201D" stroke="#56C271" stroke-width="2"/>
  <rect x="790" y="374" width="172" height="92" rx="8" fill="#13201D" stroke="#25C6B5" stroke-width="2"/>
  <path d="M666 224H790" stroke="#A9B8B2" stroke-width="5" stroke-linecap="round"/>
  <path d="M580 270V374" stroke="#A9B8B2" stroke-width="5" stroke-linecap="round"/>
  <path d="M666 420H790" stroke="#A9B8B2" stroke-width="5" stroke-linecap="round"/>
  <path d="M876 270V374" stroke="#A9B8B2" stroke-width="5" stroke-linecap="round"/>
  <circle cx="640" cy="360" r="74" fill="#F4B942" fill-opacity="0.94"/>
  <path d="M616 320L688 360L616 400V320Z" fill="#07100F"/>
  <text x="112" y="642" fill="#DDF7F0" font-family="Arial, sans-serif" font-size="42" font-weight="700">Rule Engine and Data Sources</text>
  <text x="112" y="684" fill="#A9B8B2" font-family="Arial, sans-serif" font-size="24">Configure sources, routes, rules and downstream sinks</text>
</svg>
