<svg xmlns="http://www.w3.org/2000/svg" viewBox="0 0 123 107" role="img" aria-labelledby="title">
  <title id="title">FluxMQ</title>
  <defs>
    <linearGradient id="fluxmqTheme" x1="0" y1="0" x2="123" y2="107" gradientUnits="userSpaceOnUse">
      <stop stop-color="#1eccbb"/>
      <stop offset="1" stop-color="#f4b63a"/>
    </linearGradient>
    <filter id="fluxmqGlow" x="-25%" y="-25%" width="150%" height="150%">
      <feGaussianBlur stdDeviation="2.5" result="blur"/>
      <feMerge>
        <feMergeNode in="blur"/>
        <feMergeNode in="SourceGraphic"/>
      </feMerge>
    </filter>
  </defs>
  <path
    fill-rule="evenodd"
    clip-rule="evenodd"
    d="M93.2847 102.997C90.5539 105.461 87.2389 106.516 82.4388 106.516H30.7571L25.3658 97.1838L31.5946 61.8519H56.9111L65.9341 48.9649H20.7769L15.3363 79.8204L0 53.2582L9.74093 36.3805H69.0239L73.6058 48.9649L49.7603 83.0229H65.4907L78.9901 63.7451L93.2777 102.997H93.2847Z"
    fill="url(#fluxmqTheme)"
    filter="url(#fluxmqGlow)"
  />
  <path
    fill-rule="evenodd"
    clip-rule="evenodd"
    d="M78.061 23.4936H17.1944L25.6825 8.79074C29.3142 2.49857 33.1852 0 40.5754 0H92.2571L99.3235 12.2465L87.9779 28.4556L93.3551 43.2359L106.432 24.5564L123 53.2512L102.075 89.4911L78.054 23.4866L78.061 23.4936Z"
    fill="url(#fluxmqTheme)"
  />
</svg>
